Coordinates
version=1
nRows=29
nColumns=34
inDegrees=no

Units are S.I. units (second, meters, Newtons, ...)
If the header above contains a line with 'inDegrees', this indicates whether rotational values are in degrees (yes) or radians (no).

endheader
time	pelvis_tilt	pelvis_list	pelvis_rotation	pelvis_tx	pelvis_ty	pelvis_tz	hip_flexion_r	hip_adduction_r	hip_rotation_r	knee_angle_r	ankle_angle_r	subtalar_angle_r	mtp_angle_r	hip_flexion_l	hip_adduction_l	hip_rotation_l	knee_angle_l	ankle_angle_l	subtalar_angle_l	mtp_angle_l	lumbar_extension	lumbar_bending	lumbar_rotation	arm_flex_r	arm_add_r	arm_rot_r	elbow_flex_r	pro_sup_r	arm_flex_l	arm_add_l	arm_rot_l	elbow_flex_l	pro_sup_l
6.28	-0.448971	-0.108329	0.034942	-0.369845	0.684882	-0.490443	1.49643	0.108569	-0.0834786	1.3303	0.394267	-0.41692	-0.141514	1.54967	-0.503171	0.151934	1.14554	0.250098	0.224109	-0.141515	-0.564359	0.22436	0.0507479	1.47544	-0.376762	0.235975	1.95858	1.25879	1.45504	-0.166029	0.203405	1.51521	1.5654
6.29	-0.447224	-0.109345	0.0337893	-0.36859	0.687598	-0.490509	1.48613	0.10905	-0.0854411	1.32096	0.394035	-0.414418	-0.141514	1.53948	-0.505682	0.148316	1.13731	0.249534	0.224697	-0.141515	-0.558311	0.226172	0.0498086	1.46252	-0.376971	0.232971	1.96024	1.25796	1.44584	-0.169495	0.205931	1.51714	1.56416
6.3	-0.445341	-0.1099	0.0325729	-0.367255	0.69043	-0.490561	1.47535	0.109695	-0.0868371	1.31126	0.39348	-0.412161	-0.141514	1.52835	-0.508058	0.144139	1.12865	0.248807	0.224835	-0.141515	-0.551978	0.227442	0.0486831	1.44839	-0.377259	0.230009	1.96223	1.2572	1.43576	-0.1728	0.208179	1.51948	1.56473
6.31	-0.443309	-0.110001	0.0313147	-0.365838	0.693373	-0.490606	1.4641	0.110461	-0.0876633	1.30122	0.392579	-0.410159	-0.141514	1.5163	-0.510218	0.139468	1.11962	0.247911	0.22449	-0.141515	-0.545363	0.228211	0.0473749	1.4331	-0.377695	0.227154	1.96452	1.25652	1.42474	-0.175914	0.210007	1.52226	1.56693
6.32	-0.441126	-0.109689	0.0300317	-0.364342	0.69642	-0.490649	1.4524	0.111304	-0.0879586	1.29086	0.39134	-0.408394	-0.141514	1.5034	-0.512103	0.134392	1.11026	0.246861	0.223655	-0.141515	-0.538467	0.228551	0.0459048	1.41672	-0.378342	0.224445	1.96707	1.25591	1.41273	-0.178828	0.211322	1.52553	1.57043
6.33	-0.438798	-0.109025	0.0287333	-0.362767	0.699564	-0.490694	1.44028	0.112182	-0.0877939	1.28021	0.389805	-0.406823	-0.141514	1.48972	-0.513682	0.129011	1.10063	0.24569	0.222351	-0.141515	-0.531295	0.228546	0.0443058	1.39933	-0.379251	0.221891	1.96984	1.25543	1.3997	-0.181544	0.212081	1.52931	1.57475
6.34	-0.436329	-0.108082	0.0274193	-0.361115	0.702796	-0.490745	1.42778	0.113059	-0.0872625	1.26931	0.388052	-0.405372	-0.141514	1.47537	-0.514966	0.123411	1.09076	0.244441	0.220634	-0.141515	-0.523864	0.228278	0.0426188	1.38101	-0.380437	0.219466	1.9728	1.25513	1.38567	-0.184071	0.212283	1.53363	1.57931
6.35	-0.43372	-0.10693	0.0260782	-0.359389	0.706109	-0.4908	1.41494	0.113908	-0.0864669	1.25821	0.386187	-0.403933	-0.141514	1.46044	-0.516003	0.117644	1.08068	0.243154	0.218588	-0.141515	-0.516205	0.227812	0.0408861	1.36183	-0.381881	0.217133	1.97587	1.255	1.37066	-0.186431	0.211951	1.53845	1.58356
6.36	-0.430966	-0.10562	0.024689	-0.357592	0.709499	-0.490857	1.40176	0.114708	-0.0855059	1.24694	0.384333	-0.402367	-0.141514	1.44498	-0.516867	0.111722	1.07042	0.241858	0.216324	-0.141515	-0.508373	0.227187	0.0391447	1.34187	-0.383539	0.214859	1.97896	1.25499	1.35474	-0.188654	0.211114	1.54377	1.58698
6.37	-0.428053	-0.104188	0.0232218	-0.355728	0.712963	-0.490912	1.38824	0.115442	-0.084466	1.2355	0.382614	-0.400519	-0.141514	1.42902	-0.517649	0.105616	1.05996	0.240573	0.213961	-0.141515	-0.500435	0.226422	0.0374261	1.32118	-0.38535	0.212634	1.98198	1.25498	1.33795	-0.190777	0.209804	1.54957	1.58915
6.38	-0.424955	-0.102657	0.0216406	-0.353797	0.716497	-0.490963	1.37437	0.116106	-0.0834176	1.22393	0.381135	-0.398235	-0.141514	1.41257	-0.518445	0.0992906	1.04934	0.23932	0.21161	-0.141515	-0.492468	0.22552	0.035762	1.29984	-0.387253	0.210474	1.98479	1.25484	1.32036	-0.192841	0.208062	1.55585	1.58963
6.39	-0.421632	-0.10104	0.0199087	-0.351801	0.720099	-0.491005	1.36014	0.116708	-0.0824105	1.21227	0.379959	-0.395392	-0.141514	1.39562	-0.51933	0.0927211	1.03859	0.238113	0.209351	-0.141515	-0.484545	0.224482	0.0341882	1.27793	-0.3892	0.208419	1.98726	1.25442	1.302	-0.19488	0.205956	1.56258	1.58808
6.4	-0.418047	-0.0993495	0.017994	-0.349743	0.723767	-0.491036	1.34551	0.117273	-0.081464	1.20052	0.379093	-0.391932	-0.141514	1.37816	-0.520352	0.0859075	1.02773	0.236956	0.207205	-0.141515	-0.476732	0.223314	0.0327452	1.25553	-0.391166	0.206511	1.98925	1.25364	1.28293	-0.196922	0.20358	1.56969	1.58431
6.41	-0.414181	-0.097604	0.0158729	-0.347623	0.727498	-0.491055	1.33049	0.117859	-0.0805564	1.18868	0.378476	-0.387893	-0.141514	1.36017	-0.521527	0.0788679	1.01676	0.235833	0.205144	-0.141515	-0.469079	0.222027	0.0314764	1.23272	-0.393152	0.204784	1.99071	1.25248	1.26317	-0.198978	0.201045	1.57711	1.5784
6.42	-0.410037	-0.0958311	0.0135351	-0.345444	0.731292	-0.491058	1.31505	0.118544	-0.0796348	1.1767	0.377996	-0.383415	-0.141514	1.34166	-0.522854	0.0716307	1.00565	0.23471	0.203117	-0.141515	-0.461613	0.220651	0.0304234	1.20958	-0.395174	0.203251	1.9916	1.25108	1.24272	-0.201035	0.198464	1.58473	1.57077
6.43	-0.405641	-0.0940737	0.0109906	-0.343207	0.735145	-0.491046	1.29922	0.119407	-0.0786499	1.16454	0.377532	-0.378684	-0.141514	1.32265	-0.524326	0.0642299	0.994352	0.233543	0.201093	-0.141515	-0.454327	0.219239	0.0296178	1.18613	-0.397265	0.201916	1.99195	1.2497	1.22157	-0.203059	0.195933	1.59239	1.56218
6.44	-0.401031	-0.0923832	0.00827365	-0.340914	0.739051	-0.491021	1.283	0.120482	-0.0776009	1.15215	0.37701	-0.373834	-0.141514	1.30319	-0.525927	0.0566969	0.98284	0.232296	0.199079	-0.141515	-0.447183	0.217862	0.0290696	1.16242	-0.399463	0.200782	1.99181	1.24868	1.19969	-0.204995	0.193535	1.59989	1.55357
6.45	-0.396249	-0.0908032	0.00544171	-0.338566	0.743003	-0.490986	1.26645	0.121717	-0.076557	1.13955	0.376429	-0.368872	-0.141514	1.28336	-0.527628	0.0490467	0.971079	0.230947	0.197116	-0.141515	-0.440118	0.216595	0.0287585	1.13845	-0.401807	0.19986	1.99123	1.24837	1.17705	-0.206777	0.191343	1.60706	1.54581
6.46	-0.39134	-0.0893477	0.00256917	-0.336164	0.746994	-0.490951	1.24962	0.122979	-0.0756347	1.12674	0.375847	-0.363669	-0.141514	1.26321	-0.529371	0.04126	0.959035	0.229486	0.195259	-0.141515	-0.433059	0.215487	0.0286319	1.11421	-0.404328	0.19917	1.99022	1.2491	1.1536	-0.208335	0.189451	1.61379	1.53915
6.47	-0.386344	-0.0879841	-0.000264336	-0.333708	0.751016	-0.490926	1.23254	0.124084	-0.0749342	1.11375	0.375335	-0.35805	-0.141514	1.24273	-0.531061	0.0332718	0.946667	0.227911	0.193545	-0.141515	-0.425938	0.214542	0.0286113	1.0897	-0.407053	0.198752	1.9888	1.25101	1.1293	-0.209596	0.187951	1.62005	1.53351
6.48	-0.381295	-0.0866347	-0.00298927	-0.3312	0.755066	-0.490921	1.21526	0.124861	-0.0744723	1.10062	0.374917	-0.351911	-0.141514	1.22189	-0.532577	0.0249776	0.933925	0.226225	0.191993	-0.141515	-0.418705	0.213715	0.0286077	1.06494	-0.410005	0.198675	1.98696	1.25408	1.10414	-0.21049	0.186921	1.62583	1.52862
6.49	-0.37622	-0.0851972	-0.00556369	-0.328642	0.75914	-0.490945	1.19779	0.125215	-0.0741552	1.08732	0.374546	-0.345296	-0.141514	1.20064	-0.5338	0.0162573	0.920761	0.224436	0.190597	-0.141515	-0.41133	0.212925	0.0285445	1.04	-0.413218	0.199045	1.98468	1.258	1.07811	-0.210962	0.186414	1.63117	1.52421
6.5	-0.371146	-0.083574	-0.00798685	-0.326039	0.763236	-0.490999	1.18015	0.125149	-0.0738045	1.07384	0.374113	-0.338395	-0.141514	1.17893	-0.534647	0.00700556	0.907144	0.222555	0.189346	-0.141515	-0.403802	0.212078	0.0283795	1.01497	-0.416727	0.19999	1.98197	1.26225	1.05122	-0.210973	0.18644	1.63611	1.52016
6.51	-0.366098	-0.0816944	-0.0103	-0.323392	0.76735	-0.491081	1.16236	0.124752	-0.0732106	1.06012	0.373476	-0.33148	-0.141514	1.15671	-0.535084	-0.00284442	0.893061	0.220593	0.188222	-0.141515	-0.396121	0.211092	0.0281149	0.990003	-0.420574	0.201645	1.97884	1.26621	1.0235	-0.210506	0.186956	1.64069	1.51654
6.52	-0.361091	-0.079525	-0.012573	-0.320708	0.771477	-0.491185	1.14443	0.124165	-0.0721906	1.04613	0.372504	-0.324813	-0.141514	1.13401	-0.535123	-0.0133102	0.878527	0.21856	0.187206	-0.141515	-0.388305	0.209912	0.0277888	0.965289	-0.424807	0.204125	1.97536	1.26938	0.994993	-0.209557	0.187867	1.64494	1.51351
6.53	-0.356128	-0.0770727	-0.0148843	-0.317988	0.775613	-0.491304	1.12637	0.123528	-0.0706322	1.03183	0.371087	-0.318588	-0.141514	1.11084	-0.53481	-0.0243576	0.863572	0.216457	0.186276	-0.141515	-0.380393	0.208521	0.027459	0.941035	-0.429472	0.207514	1.97162	1.2715	0.965751	-0.208136	0.189034	1.6489	1.51124
6.54	-0.351186	-0.0743826	-0.0173065	-0.315239	0.779752	-0.491431	1.10817	0.122962	-0.0685121	1.0172	0.369142	-0.312907	-0.141514	1.08724	-0.534208	-0.0359066	0.848235	0.214277	0.18541	-0.141515	-0.372451	0.206947	0.0271886	0.917463	-0.434618	0.211852	1.96776	1.27257	0.935849	-0.206268	0.190285	1.65262	1.50985
6.55	-0.346227	-0.0715308	-0.0198965	-0.312464	0.783891	-0.49156	1.08979	0.122556	-0.0658847	1.00223	0.366604	-0.307792	-0.141514	1.06324	-0.533392	-0.0478416	0.832558	0.212001	0.184583	-0.141515	-0.364569	0.205253	0.0270353	0.8948	-0.440289	0.217146	1.96395	1.27288	0.905382	-0.203987	0.191444	1.65613	1.50941
6.56	-0.341204	-0.0686127	-0.0226902	-0.309671	0.788024	-0.491687	1.07121	0.122373	-0.062851	0.986897	0.363428	-0.303213	-0.141514	1.03889	-0.532428	-0.0600241	0.816576	0.209601	0.183761	-0.141515	-0.356843	0.203529	0.0270414	0.873266	-0.446526	0.223369	1.96034	1.27291	0.874458	-0.201328	0.192345	1.65945	1.5099
